<svg width="13" height="8" viewBox="0 0 13 8" fill="none" xmlns="http://www.w3.org/2000/svg">
<path d="M0.132044 7.755H4.39584e-05L3.28904 0.0550044L3.41004 4.41074e-06L6.18204 7.755H5.24704L4.38904 5.335H1.17704L0.132044 7.755ZM2.94804 1.243L1.22104 5.225H4.35604L2.94804 1.243ZM7.1754 0.143005C8.02606 0.0843378 8.77773 0.0550044 9.4304 0.0550044C11.2417 0.0550044 12.1474 0.660004 12.1474 1.87C12.1474 2.38334 12.0227 2.84167 11.7734 3.245C11.5241 3.64834 11.0951 3.916 10.4864 4.048L12.6864 7.755H11.6634L9.5074 4.114H8.0884V7.755H7.1754V0.143005ZM9.4304 0.165004C9.00506 0.165004 8.55773 0.190671 8.0884 0.242005V4.004H9.7164C10.7504 3.96 11.2674 3.256 11.2674 1.892C11.2674 1.33467 11.1134 0.909338 10.8054 0.616004C10.4974 0.315338 10.0391 0.165004 9.4304 0.165004Z" fill="#130428"/>
</svg>
